<?xml version="1.0" encoding="UTF-8" standalone="no"?>
<svg
   version="1.1"
   width="60in"
   height="36in"
   id="svg38"
   sodipodi:docname="beagle.svg"
   inkscape:version="1.1 (c68e22c387, 2021-05-23)"
   xmlns:inkscape="http://www.inkscape.org/namespaces/inkscape"
   xmlns:sodipodi="http://sodipodi.sourceforge.net/DTD/sodipodi-0.dtd"
   xmlns="http://www.w3.org/2000/svg"
   xmlns:svg="http://www.w3.org/2000/svg">
  <defs
     id="defs42" />
  <sodipodi:namedview
     id="namedview40"
     pagecolor="#505050"
     bordercolor="#eeeeee"
     borderopacity="1"
     inkscape:pageshadow="0"
     inkscape:pageopacity="0"
     inkscape:pagecheckerboard="0"
     showgrid="false"
     units="in"
     lock-margins="true"
     inkscape:zoom="0.056041667"
     inkscape:cx="1507.8067"
     inkscape:cy="-240.89219"
     inkscape:window-width="1920"
     inkscape:window-height="1017"
     inkscape:window-x="-8"
     inkscape:window-y="-8"
     inkscape:window-maximized="1"
     inkscape:current-layer="svg38"
     inkscape:document-units="in" />
  <g
     id="g62"
     transform="matrix(9.6049573,0,0,9.6049573,-0.54142393,-0.79779696)">
    <rect
       width="600"
       height="360"
       x="0"
       y="0"
       fill="#5d3527"
       id="rect2" />
    <polygon
       points="300,0 200,360 400,360 "
       fill="#ffffff"
       id="polygon4" />
    <ellipse
       cx="300"
       cy="270"
       rx="60"
       ry="30"
       fill="#000000"
       id="ellipse6" />
    <circle
       cx="420"
       cy="120"
       fill="#ffffff"
       id="ellipse8"
       r="37.5" />
    <circle
       cx="420"
       cy="120"
       fill="#000000"
       id="ellipse10"
       r="27" />
    <circle
       cx="180"
       cy="120"
       fill="#ffffff"
       id="ellipse12"
       r="37.5" />
    <circle
       cx="180"
       cy="120"
       fill="#000000"
       id="ellipse14"
       r="27" />
    <polygon
       points="0,0 0,240 120,0 "
       fill="#000000"
       id="polygon16" />
    <polygon
       points="600,0 600,240 480,0 "
       fill="#000000"
       id="polygon18" />
    <g
       transform="matrix(-1.815962,3.5640261,-3.5640261,-1.815962,75,120)"
       id="g22">
      <path
         d="m -47.998328,-1.8672054 q 6,2.9333319 12,0 6,-2.9333332 11.99999,0 6,2.9333319 12,0 6.0000006,-2.9333332 12.00000069,0 5.99999991,2.9333319 11.99998931,0 5.999999,-2.9333332 11.999999,0 6,2.9333319 12,0 6,-2.9333332 11.999991,0 v 3.7333318 q -5.99999,-2.933333 -11.99999,0 -6,2.9333319 -12,0 -6,-2.933333 -12,0 -5.9999892,2.9333319 -11.99998931,0 -5.99999989,-2.933333 -12.00000069,0 -6,2.9333319 -12,0 -5.99999,-2.933333 -11.99999,0 -6,2.9333319 -12,0 z"
         fill="#ffffff"
         id="path20" />
    </g>
    <g
       transform="matrix(-1.815962,3.5640261,-3.5640261,-1.815962,60,120)"
       id="g26">
      <path
         d="m -47.998328,-1.8672054 q 6,2.9333319 12,0 6,-2.9333332 11.99999,0 6,2.9333319 12,0 6.0000006,-2.9333332 12.00000069,0 5.99999991,2.9333319 11.99998931,0 5.999999,-2.9333332 11.999999,0 6,2.9333319 12,0 6,-2.9333332 11.999991,0 v 3.7333318 q -5.99999,-2.933333 -11.99999,0 -6,2.9333319 -12,0 -6,-2.933333 -12,0 -5.9999892,2.9333319 -11.99998931,0 -5.99999989,-2.933333 -12.00000069,0 -6,2.9333319 -12,0 -5.99999,-2.933333 -11.99999,0 -6,2.9333319 -12,0 z"
         fill="#000000"
         id="path24" />
    </g>
    <g
       transform="matrix(1.815962,3.5640261,-3.5640261,1.815962,525,120)"
       id="g30">
      <path
         d="m -47.998328,-1.8672054 q 6,2.9333319 12,0 6,-2.9333332 11.99999,0 6,2.9333319 12,0 6.0000006,-2.9333332 12.00000069,0 5.99999991,2.9333319 11.99998931,0 5.999999,-2.9333332 11.999999,0 6,2.9333319 12,0 6,-2.9333332 11.999991,0 v 3.7333318 q -5.99999,-2.933333 -11.99999,0 -6,2.9333319 -12,0 -6,-2.933333 -12,0 -5.9999892,2.9333319 -11.99998931,0 -5.99999989,-2.933333 -12.00000069,0 -6,2.9333319 -12,0 -5.99999,-2.933333 -11.99999,0 -6,2.9333319 -12,0 z"
         fill="#ffffff"
         id="path28" />
    </g>
    <g
       transform="matrix(1.815962,3.5640261,-3.5640261,1.815962,540,120)"
       id="g34">
      <path
         d="m -47.998328,-1.8672054 q 6,2.9333319 12,0 6,-2.9333332 11.99999,0 6,2.9333319 12,0 6.0000006,-2.9333332 12.00000069,0 5.99999991,2.9333319 11.99998931,0 5.999999,-2.9333332 11.999999,0 6,2.9333319 12,0 6,-2.9333332 11.999991,0 v 3.7333318 q -5.99999,-2.933333 -11.99999,0 -6,2.9333319 -12,0 -6,-2.933333 -12,0 -5.9999892,2.9333319 -11.99998931,0 -5.99999989,-2.933333 -12.00000069,0 -6,2.9333319 -12,0 -5.99999,-2.933333 -11.99999,0 -6,2.9333319 -12,0 z"
         fill="#000000"
         id="path32" />
    </g>
    <path
       d="m 330,330 a 30,60 -180 1 1 -60,0 z"
       fill="#ff0000"
       id="path36" />
  </g>
</svg>
